<svg xmlns="http://www.w3.org/2000/svg" width="1024" height="1024" fill="none" viewBox="0 0 1024 1024"><defs><radialGradient id="bg-gradient" cx="0" cy="0" r="1" gradientTransform="translate(512 512) rotate(90) scale(512)" gradientUnits="userSpaceOnUse"><stop offset="0" stop-color="#2E2F4A"/><stop offset=".45" stop-color="#262147"/><stop offset=".78" stop-color="#1A1634"/><stop offset="1" stop-color="#0D0A1F"/></radialGradient><radialGradient id="top-spot" cx="0" cy="0" r="1" gradientTransform="translate(512 190) rotate(90) scale(520 380)" gradientUnits="userSpaceOnUse"><stop offset="0" stop-color="#7A2BD8" stop-opacity=".24"/><stop offset=".6" stop-color="#2C1C5E" stop-opacity=".1"/><stop offset="1" stop-color="#0A1020" stop-opacity="0"/></radialGradient><radialGradient id="inner-plate" cx="0" cy="0" r="1" gradientTransform="translate(512 492) rotate(90) scale(470)" gradientUnits="userSpaceOnUse"><stop offset="0" stop-color="#552BFF" stop-opacity=".18"/><stop offset=".45" stop-color="#2A164A" stop-opacity=".08"/><stop offset=".78" stop-color="#0E0A22" stop-opacity=".04"/><stop offset="1" stop-color="#0C1324" stop-opacity="0"/></radialGradient><radialGradient id="disk-darken" cx="0" cy="0" r="1" gradientTransform="translate(512 512) rotate(90) scale(390)" gradientUnits="userSpaceOnUse"><stop offset="0" stop-color="#07081A" stop-opacity=".62"/><stop offset=".6" stop-color="#07081A" stop-opacity=".62"/><stop offset=".78" stop-color="#07081A" stop-opacity=".46"/><stop offset=".9" stop-color="#07081A" stop-opacity=".22"/><stop offset="1" stop-color="#07081A" stop-opacity="0"/></radialGradient><filter id="soft-glow" width="200%" height="200%" x="-50%" y="-50%" color-interpolation-filters="sRGB"><feGaussianBlur stdDeviation="22"/></filter><filter id="mid-glow" width="200%" height="200%" x="-50%" y="-50%" color-interpolation-filters="sRGB"><feGaussianBlur stdDeviation="14"/></filter><filter id="wide-glow" width="240%" height="240%" x="-70%" y="-70%" color-interpolation-filters="sRGB"><feGaussianBlur stdDeviation="52"/></filter><filter id="far-glow" width="280%" height="280%" x="-90%" y="-90%" color-interpolation-filters="sRGB"><feGaussianBlur stdDeviation="72"/></filter><filter id="inner-bloom" width="240%" height="240%" x="-70%" y="-70%" color-interpolation-filters="sRGB"><feGaussianBlur stdDeviation="10"/></filter><filter id="sym-edge" width="180%" height="180%" x="-40%" y="-40%" color-interpolation-filters="sRGB"><feGaussianBlur stdDeviation="6"/></filter><filter id="sym-soft" width="200%" height="200%" x="-50%" y="-50%" color-interpolation-filters="sRGB"><feGaussianBlur stdDeviation="14"/></filter><filter id="sym-wide" width="240%" height="240%" x="-70%" y="-70%" color-interpolation-filters="sRGB"><feGaussianBlur stdDeviation="28"/></filter><filter id="sym-far" width="280%" height="280%" x="-90%" y="-90%" color-interpolation-filters="sRGB"><feGaussianBlur stdDeviation="42"/></filter><linearGradient id="cutout-glow-fill" x1="440" x2="616" y1="520" y2="520" gradientUnits="userSpaceOnUse"><stop offset="0" stop-color="#9221FF"/><stop offset=".6" stop-color="#5B17FF"/><stop offset="1" stop-color="#2A00FF"/></linearGradient><filter id="edge-glow" width="180%" height="180%" x="-40%" y="-40%" color-interpolation-filters="sRGB"><feGaussianBlur stdDeviation="10"/></filter><linearGradient id="halo-bias" x1="0" x2="0" y1="0" y2="1024" gradientUnits="userSpaceOnUse"><stop offset="0" stop-color="#FFF" stop-opacity="1"/><stop offset=".55" stop-color="#FFF" stop-opacity="1"/><stop offset="1" stop-color="#FFF" stop-opacity=".35"/></linearGradient><linearGradient id="halo-bias-soft" x1="0" x2="0" y1="0" y2="1024" gradientUnits="userSpaceOnUse"><stop offset="0" stop-color="#FFF" stop-opacity="1"/><stop offset=".55" stop-color="#FFF" stop-opacity="1"/><stop offset="1" stop-color="#FFF" stop-opacity=".78"/></linearGradient><radialGradient id="ring-core-base" cx="0" cy="0" r="1" gradientTransform="translate(512 512) rotate(90) scale(410)" gradientUnits="userSpaceOnUse"><stop offset="0" stop-color="#FFF"/><stop offset=".955" stop-color="#FFF"/><stop offset=".97" stop-color="#DAA3FF"/><stop offset=".99" stop-color="#A528FF"/><stop offset="1" stop-color="#A528FF"/></radialGradient><linearGradient id="ring-highlight-mask-grad" x1="0" x2="0" y1="0" y2="1024" gradientUnits="userSpaceOnUse"><stop offset="0" stop-color="#FFF"/><stop offset=".55" stop-color="#FFF"/><stop offset=".9" stop-color="#000"/><stop offset="1" stop-color="#000"/></linearGradient><mask id="ring-highlight-mask" width="1024" height="1024" x="0" y="0" maskContentUnits="userSpaceOnUse" maskUnits="userSpaceOnUse"><rect width="1024" height="1024" x="0" y="0" fill="url(#ring-highlight-mask-grad)"/></mask><clipPath id="ring-inner-clip"><circle cx="512" cy="512" r="394"/></clipPath><radialGradient id="ring-mask-feather" cx="0" cy="0" r="1" gradientTransform="translate(512 512) rotate(90) scale(360)" gradientUnits="userSpaceOnUse"><stop offset="0" stop-color="#000"/><stop offset=".9" stop-color="#000"/><stop offset=".93" stop-color="#1A1A1A"/><stop offset=".96" stop-color="#6A6A6A"/><stop offset=".985" stop-color="#D0D0D0"/><stop offset="1" stop-color="#FFF"/></radialGradient><mask id="ring-glow-mask" width="1024" height="1024" x="0" y="0" maskContentUnits="userSpaceOnUse" maskUnits="userSpaceOnUse"><rect width="1024" height="1024" x="0" y="0" fill="#FFF"/><circle cx="512" cy="512" r="360" fill="url(#ring-mask-feather)"/></mask><mask id="ring-glow-mask-biased" width="1024" height="1024" x="0" y="0" maskContentUnits="userSpaceOnUse" maskUnits="userSpaceOnUse"><rect width="1024" height="1024" x="0" y="0" fill="url(#halo-bias)"/><circle cx="512" cy="512" r="360" fill="url(#ring-mask-feather)"/></mask><mask id="ring-glow-mask-biased-soft" width="1024" height="1024" x="0" y="0" maskContentUnits="userSpaceOnUse" maskUnits="userSpaceOnUse"><rect width="1024" height="1024" x="0" y="0" fill="url(#halo-bias-soft)"/><circle cx="512" cy="512" r="360" fill="url(#ring-mask-feather)"/></mask><radialGradient id="inside-ring-feather" cx="0" cy="0" r="1" gradientTransform="translate(512 512) rotate(90) scale(404)" gradientUnits="userSpaceOnUse"><stop offset="0" stop-color="#FFF" stop-opacity="1"/><stop offset=".985" stop-color="#FFF" stop-opacity="1"/><stop offset="1" stop-color="#FFF" stop-opacity="0"/></radialGradient><linearGradient id="inner-bloom-bottom-boost" x1="0" x2="0" y1="0" y2="1024" gradientUnits="userSpaceOnUse"><stop offset="0" stop-color="#9221FF" stop-opacity="0"/><stop offset=".65" stop-color="#9221FF" stop-opacity="0"/><stop offset=".85" stop-color="#9221FF" stop-opacity=".7"/><stop offset="1" stop-color="#9221FF" stop-opacity="1"/></linearGradient><mask id="inside-ring-mask" width="1024" height="1024" x="0" y="0" maskContentUnits="userSpaceOnUse" maskUnits="userSpaceOnUse"><rect width="1024" height="1024" x="0" y="0" fill="#000"/><circle cx="512" cy="512" r="404" fill="url(#inside-ring-feather)"/></mask><filter id="soft-core" width="140%" height="140%" x="-20%" y="-20%" color-interpolation-filters="sRGB"><feGaussianBlur stdDeviation="1.2"/></filter></defs><rect width="1024" height="1024" fill="url(#bg-gradient)"/><ellipse cx="512" cy="190" fill="url(#top-spot)" rx="640" ry="440"/><circle cx="512" cy="512" r="390" fill="url(#inner-plate)"/><circle cx="512" cy="512" r="390" fill="url(#disk-darken)"/><circle cx="512" cy="512" r="370" stroke="#9221FF" stroke-width="18" filter="url(#inner-bloom)" mask="url(#inside-ring-mask)" opacity=".92"/><circle cx="512" cy="512" r="370" stroke="url(#inner-bloom-bottom-boost)" stroke-width="18" filter="url(#inner-bloom)" mask="url(#inside-ring-mask)" opacity=".55"/><circle cx="512" cy="512" r="396" stroke="#9221FF" stroke-width="48" filter="url(#far-glow)" mask="url(#ring-glow-mask-biased)" opacity=".82"/><circle cx="512" cy="512" r="396" stroke="#9221FF" stroke-width="52" filter="url(#wide-glow)" mask="url(#ring-glow-mask-biased)" opacity="1"/><circle cx="512" cy="512" r="396" stroke="#9221FF" stroke-width="36" filter="url(#soft-glow)" mask="url(#ring-glow-mask)" opacity=".9"/><circle cx="512" cy="512" r="396" stroke="#9221FF" stroke-width="34" filter="url(#mid-glow)" mask="url(#ring-glow-mask)" opacity=".85"/><circle cx="512" cy="512" r="396" stroke="#9221FF" stroke-width="30" filter="url(#edge-glow)" mask="url(#ring-glow-mask)" opacity=".45"/><circle cx="512" cy="512" r="394" stroke="url(#ring-core-base)" stroke-width="31" filter="url(#soft-core)" opacity=".32"/><circle cx="512" cy="512" r="394" stroke="url(#ring-core-base)" stroke-width="31"/><circle cx="512" cy="512" r="394" stroke="#FFF" stroke-width="31" clip-path="url(#ring-inner-clip)" filter="url(#soft-core)" mask="url(#ring-highlight-mask)" opacity=".24"/><g><path fill="url(#cutout-glow-fill)" d="M440 449 L512 520 L584 449 L616 481 L616 503 L512 597 L408 503 L408 481 Z" filter="url(#sym-soft)" opacity=".38" transform="translate(512 512) scale(0.98) translate(-512 -512)"/><path fill="#9221FF" fill-rule="evenodd" d="M440 376 L512 448 L584 376 L665 457 L665 525 L512 678 L359 525 L359 457 Z M440 449 L512 520 L584 449 L616 481 L616 503 L512 597 L408 503 L408 481 Z" filter="url(#sym-far)" opacity=".14" transform="translate(512 512) scale(0.98) translate(-512 -512)"/><path fill="#9221FF" fill-rule="evenodd" d="M440 376 L512 448 L584 376 L665 457 L665 525 L512 678 L359 525 L359 457 Z M440 449 L512 520 L584 449 L616 481 L616 503 L512 597 L408 503 L408 481 Z" filter="url(#sym-wide)" opacity=".36" transform="translate(512 512) scale(0.98) translate(-512 -512)"/><path fill="#9221FF" fill-rule="evenodd" d="M440 376 L512 448 L584 376 L665 457 L665 525 L512 678 L359 525 L359 457 Z M440 449 L512 520 L584 449 L616 481 L616 503 L512 597 L408 503 L408 481 Z" filter="url(#sym-soft)" opacity=".64" transform="translate(512 512) scale(0.98) translate(-512 -512)"/><path fill="#9221FF" fill-rule="evenodd" d="M440 376 L512 448 L584 376 L665 457 L665 525 L512 678 L359 525 L359 457 Z M440 449 L512 520 L584 449 L616 481 L616 503 L512 597 L408 503 L408 481 Z" filter="url(#sym-edge)" opacity=".84" transform="translate(512 512) scale(0.98) translate(-512 -512)"/><path fill="#FFF" fill-rule="evenodd" d="M440 376 L512 448 L584 376 L665 457 L665 525 L512 678 L359 525 L359 457 Z M440 449 L512 520 L584 449 L616 481 L616 503 L512 597 L408 503 L408 481 Z" filter="url(#soft-core)" opacity=".34" transform="translate(512 512) scale(0.98) translate(-512 -512)"/><path fill="#FFF" fill-rule="evenodd" d="M440 376 L512 448 L584 376 L665 457 L665 525 L512 678 L359 525 L359 457 Z M440 449 L512 520 L584 449 L616 481 L616 503 L512 597 L408 503 L408 481 Z" transform="translate(512 512) scale(0.98) translate(-512 -512)"/></g></svg>